<svg xmlns="http://www.w3.org/2000/svg" version="1.1" xmlns:xlink="http://www.w3.org/1999/xlink" xmlns:svgjs="http://svgjs.dev/svgjs" width="1000" height="707" viewBox="0 0 1000 707"><g transform="matrix(1,0,0,1,-0.6060606060606233,0.00007890624999618012)"><svg viewBox="0 0 396 280" data-background-color="#ffffff" preserveAspectRatio="xMidYMid meet" height="707" width="1000" xmlns="http://www.w3.org/2000/svg" xmlns:xlink="http://www.w3.org/1999/xlink"><g id="tight-bounds" transform="matrix(1,0,0,1,0.2400000000000091,-0.00003125000000636646)"><svg viewBox="0 0 395.52 280" height="280" width="395.52"><g><svg viewBox="0 0 395.52 280" height="280" width="395.52"><g><svg viewBox="0 0 395.52 280" height="280" width="395.52"><g><svg viewBox="0 0 395.52 280" height="280" width="395.52"><g><svg viewBox="0 0 395.52 280" height="280" width="395.52"><g transform="matrix(1,0,0,1,129.92584019534067,74.00336708925556)"><svg viewBox="0 0 135.66831960931864 131.99326582148888" height="131.99326582148888" width="135.66831960931864"><g><svg xmlns="http://www.w3.org/2000/svg" data-name="Layer 1" viewBox="0.9717609040656313 2.2997265332874806 98.05647819186872 95.40027346671252" x="0" y="0" height="131.99326582148888" width="135.66831960931864" class="icon-k$-0" data-fill-palette-color="accent" id="k$-0"><path d="M99 60.33a12.31 12.31 0 0 1-3.58 9.54L78.08 87.19V97.7H53.9L54 84.31a24.74 24.74 0 0 1 7.24-17.39L76 52.1a5 5 0 0 1 7.38 0.36 5.13 5.13 0 0 1-0.48 6.84l-7.12 7.12a1.65 1.65 0 0 0 0.2 2.51 1.7 1.7 0 0 0 2.18-0.23l8.19-8.19A5.87 5.87 0 0 0 88.09 56L86.83 37a5.17 5.17 0 0 1 10.33-0.65ZM38.79 66.92L24 52.1a5 5 0 0 0-7.38 0.36 5.13 5.13 0 0 0 0.48 6.84l7.12 7.12a1.65 1.65 0 0 1-0.2 2.51 1.7 1.7 0 0 1-2.18-0.23l-8.19-8.19A5.87 5.87 0 0 1 11.91 56l1.27-19a5.17 5.17 0 0 0-10.33-0.65L1 60.33a12.31 12.31 0 0 0 3.58 9.54L21.92 87.19V97.7H46.1L46 84.31A24.74 24.74 0 0 0 38.79 66.92ZM67.57 49c6.89-6.89 8.92-20.35-16.3-46.17a1.81 1.81 0 0 0-2.56 0h0C16.17 36.16 29 48.9 39.08 53.49a50.06 50.06 0 0 1 6.52-19l0.06-0.08a0.41 0.41 0 0 1 0.7 0.3V62.47a3.92 3.92 0 0 0 3.48 3.89 3.68 3.68 0 0 0 3.88-3.67V55.76C55.73 55.39 62.81 53.77 67.57 49Z" fill="#99cefa" data-fill-palette-color="accent"></path></svg></g></svg></g><path d="M62.44 96.95C63.64 93.332 65.136 90.881 66.929 89.597 68.73 88.309 70.912 88.09 73.476 88.94V88.94C76.298 89.877 78.074 91.517 78.803 93.862 79.533 96.206 79.26 99.301 77.984 103.147V103.147L77.626 104.227 84.285 106.435C84.784 106.6 85.425 106.778 86.21 106.969 86.989 107.157 87.597 107.257 88.035 107.269V107.269C88.267 107.731 88.3 108.212 88.135 108.711V108.711C88.003 109.109 87.78 109.389 87.467 109.551 87.15 109.705 86.788 109.729 86.382 109.622V109.622L65.364 102.651C64.89 102.494 64.248 102.316 63.438 102.118 62.634 101.921 62.012 101.82 61.573 101.814V101.814C61.399 100.838 61.688 99.217 62.44 96.95ZM76.904 102.536C77.905 99.518 78.067 97.108 77.389 95.306 76.711 93.504 75.188 92.21 72.82 91.425V91.425C70.578 90.681 68.717 90.789 67.235 91.749 65.751 92.714 64.529 94.643 63.57 97.535V97.535C63.239 98.533 63.075 99.155 63.078 99.401V99.401L76.471 103.843ZM76.773 69.431L97.888 82.185C99.325 79.773 100.957 76.662 102.784 72.852V72.852C102.936 72.757 103.126 72.733 103.355 72.779 103.589 72.828 103.818 72.92 104.039 73.055V73.055C104.602 73.398 104.779 73.739 104.572 74.08V74.08L98.653 83.807C98.449 84.143 98.174 84.353 97.826 84.437 97.488 84.519 97.14 84.452 96.782 84.234V84.234L78.177 72.96C76.716 72.071 75.547 71.515 74.67 71.293V71.293C74.545 70.781 74.62 70.301 74.893 69.852V69.852C75.111 69.494 75.388 69.281 75.725 69.214 76.066 69.14 76.415 69.213 76.773 69.431ZM123.191 52.045C123.825 52.343 124.392 52.521 124.89 52.578V52.578C124.927 53.096 124.749 53.549 124.358 53.939V53.939C124.08 54.216 123.783 54.394 123.468 54.473 123.152 54.543 122.856 54.495 122.579 54.33V54.33L114.805 50.326 107.068 58.028 110.539 64.753C110.726 65.158 110.932 65.474 111.157 65.7V65.7C111.397 65.941 111.618 66.073 111.82 66.097V66.097C111.65 66.482 111.397 66.841 111.062 67.175V67.175C110.43 67.804 109.847 67.849 109.312 67.312V67.312C109.181 67.18 109.038 66.97 108.883 66.683 108.724 66.4 108.597 66.193 108.503 66.061V66.061L96.907 42.178C97.172 41.51 97.51 40.972 97.92 40.564V40.564C98.495 39.991 99.088 39.861 99.699 40.173V40.173ZM106.323 56.601L113.36 49.596 98.834 42.104ZM134.073 47.037C133.715 47.255 133.314 47.331 132.87 47.267V47.267C132.689 46.458 132.106 45.243 131.121 43.623V43.623L121.317 27.581C120.266 25.853 119.443 24.68 118.848 24.06V24.06C118.942 23.754 119.214 23.464 119.663 23.191V23.191C120.021 22.973 120.291 22.887 120.474 22.931V22.931C123.697 24.389 127.998 26.403 133.376 28.972 138.748 31.544 143.01 33.623 146.163 35.21V35.21L135.183 18.003C134.722 17.295 134.366 16.658 134.116 16.094 133.863 15.524 133.765 15.081 133.822 14.766V14.766C133.934 14.604 134.115 14.448 134.365 14.295V14.295C134.519 14.202 134.648 14.139 134.752 14.107V14.107C135.235 14.49 135.675 15.009 136.073 15.663V15.663L147.204 33.887C148.269 35.638 148.99 36.753 149.367 37.232V37.232C149.337 37.375 149.249 37.53 149.102 37.697 148.954 37.865 148.781 38.009 148.582 38.13V38.13C148.355 38.268 148.185 38.341 148.072 38.347V38.347C143.18 36.526 134.634 32.513 122.434 26.306V26.306L134.336 45.125C134.594 45.498 134.688 45.865 134.62 46.226 134.545 46.59 134.363 46.86 134.073 47.037ZM168.894 2.804C169.202 2.718 169.416 2.889 169.536 3.319V3.319C169.614 3.601 169.627 3.891 169.572 4.189 169.519 4.494 169.403 4.71 169.224 4.836V4.836L167.578 5.099C165.038 5.477 163.075 5.832 161.689 6.164V6.164L167.615 27.22C168.103 28.97 168.582 30.186 169.049 30.871V30.871C168.744 31.336 168.351 31.636 167.871 31.77V31.77C167.46 31.885 167.11 31.855 166.82 31.68 166.521 31.501 166.315 31.21 166.202 30.806V30.806L159.412 6.8C158.036 7.24 156.164 7.957 153.795 8.95V8.95L152.328 9.557C152.11 9.542 151.897 9.411 151.69 9.165 151.485 8.926 151.343 8.665 151.264 8.383V8.383C151.151 7.979 151.233 7.739 151.508 7.662V7.662ZM188.927 27.738C188.537 27.781 188.202 27.694 187.924 27.477 187.652 27.253 187.493 26.932 187.447 26.516V26.516L184.983 4.51C184.796 2.81 184.523 1.545 184.163 0.715V0.715C184.493 0.304 184.919 0.069 185.441 0.012V0.012C185.858-0.034 186.209 0.054 186.495 0.277 186.787 0.499 186.956 0.819 187.002 1.235V1.235L189.422 23.206C189.62 25.011 189.892 26.29 190.236 27.042V27.042C189.912 27.446 189.476 27.678 188.927 27.738ZM204.279 27.903C203.862 27.862 203.495 27.681 203.179 27.362V27.362C203.522 26.608 203.787 25.287 203.976 23.4V23.4L205.801 4.688C206.001 2.676 206.051 1.243 205.948 0.391V0.391C206.208 0.203 206.599 0.135 207.122 0.187V0.187C207.539 0.228 207.807 0.322 207.926 0.468V0.468C209.623 3.572 211.845 7.768 214.594 13.056 217.336 18.344 219.489 22.57 221.052 25.734V25.734L222.639 5.384C222.697 4.541 222.796 3.819 222.936 3.217 223.077 2.61 223.265 2.197 223.5 1.98V1.98C223.687 1.918 223.926 1.902 224.217 1.931V1.931C224.396 1.949 224.537 1.976 224.64 2.013V2.013C224.795 2.611 224.834 3.29 224.758 4.051V4.051L222.679 25.305C222.476 27.344 222.381 28.668 222.394 29.278V29.278C222.284 29.374 222.12 29.444 221.901 29.489 221.683 29.534 221.458 29.545 221.226 29.522V29.522C220.961 29.496 220.782 29.451 220.688 29.389V29.389C217.877 24.99 213.468 16.641 207.46 4.342V4.342L205.639 26.534C205.62 26.987 205.475 27.337 205.203 27.584 204.925 27.83 204.616 27.937 204.279 27.903ZM242.841 37.142C239.641 35.882 237.642 33.805 236.844 30.91 236.052 28.017 236.498 24.432 238.182 20.155V20.155C239.858 15.896 241.986 12.976 244.567 11.397 247.154 9.82 250.01 9.646 253.137 10.877V10.877C254.338 11.35 255.402 11.951 256.33 12.681 257.252 13.408 257.922 14.158 258.34 14.931 258.758 15.703 258.862 16.358 258.65 16.897V16.897C258.486 17.312 258.195 17.579 257.776 17.7 257.365 17.818 256.905 17.733 256.395 17.447V17.447C256.615 16.325 256.388 15.285 255.715 14.326 255.047 13.37 254.054 12.632 252.736 12.113V12.113C250.266 11.141 248.008 11.411 245.962 12.922 243.909 14.43 242.108 17.153 240.559 21.09V21.09C239.011 25.021 238.477 28.232 238.955 30.722 239.427 33.21 240.911 34.945 243.405 35.927V35.927C245.677 36.821 247.516 36.691 248.922 35.535 250.321 34.377 251.401 32.833 252.161 30.901V30.901C253.392 27.775 253.073 25.716 251.204 24.723V24.723C251.378 24.427 251.638 24.247 251.985 24.183 252.336 24.128 252.718 24.182 253.133 24.345V24.345C254.161 24.75 254.837 25.538 255.162 26.71 255.494 27.884 255.265 29.474 254.475 31.48V31.48C253.898 32.947 253.096 34.247 252.071 35.381 251.046 36.514 249.751 37.288 248.187 37.702 246.629 38.118 244.847 37.932 242.841 37.142ZM295.411 38.246C298.2 40.845 299.804 43.226 300.225 45.391 300.645 47.565 299.935 49.64 298.094 51.616V51.616C296.067 53.792 293.835 54.723 291.4 54.409 288.965 54.095 286.265 52.557 283.301 49.795V49.795L282.468 49.02 277.686 54.153C277.328 54.537 276.899 55.047 276.399 55.681 275.903 56.31 275.559 56.821 275.366 57.214V57.214C274.849 57.233 274.398 57.063 274.013 56.704V56.704C273.707 56.419 273.545 56.1 273.528 55.747 273.52 55.394 273.649 55.056 273.915 54.731V54.731L289.01 38.529C289.35 38.164 289.779 37.655 290.297 37.001 290.811 36.352 291.162 35.829 291.35 35.431V35.431C292.31 35.68 293.663 36.618 295.411 38.246ZM284.306 49.068C286.633 51.235 288.756 52.386 290.677 52.521 292.597 52.655 294.408 51.81 296.108 49.985V49.985C297.718 48.257 298.396 46.519 298.141 44.772 297.881 43.021 296.637 41.107 294.408 39.03V39.03C293.639 38.313 293.142 37.905 292.917 37.805V37.805L283.298 48.129ZM302.109 89.206C301.68 89.761 301.384 90.275 301.219 90.749V90.749C300.706 90.672 300.302 90.4 300.007 89.933V89.933C299.797 89.602 299.688 89.273 299.679 88.948 299.68 88.625 299.791 88.346 300.012 88.112V88.112L305.613 81.396 299.78 72.168 292.46 74.091C292.024 74.186 291.671 74.318 291.402 74.489V74.489C291.115 74.67 290.938 74.857 290.87 75.049V75.049C290.531 74.799 290.235 74.474 289.983 74.075V74.075C289.507 73.321 289.589 72.742 290.23 72.337V72.337C290.388 72.237 290.623 72.143 290.937 72.055 291.248 71.961 291.478 71.883 291.627 71.82V71.82L317.462 65.702C318.056 66.105 318.507 66.552 318.817 67.041V67.041C319.25 67.727 319.248 68.334 318.811 68.863V68.863ZM301.335 71.752L306.64 80.145 317.114 67.598ZM330.275 93.427L307.124 101.946C308.11 104.575 309.52 107.793 311.353 111.6V111.6C311.333 111.777 311.233 111.941 311.054 112.091 310.869 112.244 310.654 112.364 310.41 112.453V112.453C309.792 112.679 309.414 112.604 309.277 112.229V112.229L305.38 101.53C305.245 101.162 305.254 100.815 305.405 100.491 305.552 100.176 305.822 99.946 306.216 99.803V99.803L326.643 92.319C328.249 91.733 329.413 91.168 330.134 90.622V90.622C330.612 90.844 330.941 91.202 331.121 91.696V91.696C331.264 92.09 331.257 92.439 331.099 92.745 330.944 93.056 330.669 93.284 330.275 93.427ZM95.025 178.415C96.215 182.008 96.476 184.848 95.807 186.934 95.14 189.026 93.531 190.494 90.98 191.339V191.339C88.182 192.265 85.799 192.01 83.83 190.574 81.856 189.139 80.237 186.515 78.974 182.7V182.7L78.616 181.62 72.004 183.81C71.511 183.973 70.896 184.212 70.159 184.526 69.422 184.84 68.878 185.122 68.526 185.372V185.372C68.066 185.146 67.753 184.783 67.588 184.284V184.284C67.456 183.886 67.468 183.532 67.625 183.221 67.781 182.91 68.054 182.676 68.443 182.519V182.519L89.322 175.605C89.79 175.45 90.404 175.211 91.167 174.889 91.922 174.568 92.479 174.282 92.838 174.031V174.031C93.549 174.699 94.279 176.16 95.025 178.415ZM80.205 182.545C81.196 185.538 82.493 187.551 84.096 188.583 85.701 189.621 87.682 189.75 90.038 188.97V188.97C92.267 188.232 93.684 187.041 94.289 185.397 94.9 183.751 94.73 181.491 93.778 178.618V178.618C93.452 177.632 93.214 177.039 93.062 176.836V176.836L79.772 181.238ZM103.488 200.494L82.595 213.289C84.07 215.663 86.069 218.523 88.594 221.869V221.869C88.609 222.047 88.541 222.224 88.392 222.401 88.24 222.587 88.053 222.747 87.832 222.882V222.882C87.274 223.22 86.894 223.222 86.69 222.887V222.887L80.817 213.226C80.613 212.89 80.552 212.553 80.635 212.215 80.717 211.877 80.937 211.599 81.296 211.381V211.381L99.736 200.124C101.186 199.243 102.21 198.469 102.808 197.801V197.801C103.311 197.924 103.697 198.207 103.967 198.65V198.65C104.184 199.008 104.248 199.351 104.159 199.678 104.064 200.008 103.84 200.28 103.488 200.494ZM110.877 246.376C110.582 247.002 110.409 247.563 110.358 248.057V248.057C109.841 248.095 109.389 247.922 109.002 247.537V247.537C108.724 247.26 108.547 246.966 108.471 246.656 108.4 246.341 108.447 246.044 108.611 245.767V245.767L112.548 238.04 104.87 230.391 98.215 233.861C97.806 234.045 97.492 234.248 97.271 234.47V234.47C97.032 234.71 96.903 234.934 96.884 235.141V235.141C96.498 234.972 96.138 234.721 95.803 234.388V234.388C95.176 233.763 95.128 233.185 95.659 232.652V232.652C95.79 232.52 95.999 232.376 96.286 232.221 96.573 232.065 96.779 231.937 96.906 231.838V231.838L120.565 220.235C121.229 220.493 121.763 220.824 122.169 221.227V221.227C122.744 221.8 122.874 222.39 122.56 222.998V222.998ZM106.28 229.64L113.265 236.599 120.653 222.141ZM122.813 257.663C122.461 257.449 122.214 257.131 122.073 256.71V256.71C122.703 256.175 123.506 255.106 124.481 253.503V253.503L134.151 237.543C135.195 235.826 135.859 234.564 136.141 233.754V233.754C136.447 233.699 136.822 233.807 137.265 234.076V234.076C137.623 234.294 137.825 234.495 137.869 234.678V234.678C138.058 238.18 138.244 242.889 138.429 248.804 138.613 254.719 138.723 259.427 138.756 262.929V262.929L148.928 245.393C149.341 244.664 149.741 244.058 150.128 243.577 150.514 243.095 150.856 242.809 151.153 242.717V242.717C151.354 242.746 151.576 242.835 151.821 242.983V242.983C151.974 243.077 152.089 243.163 152.166 243.241V243.241C152.045 243.837 151.787 244.459 151.393 245.106V245.106L140.4 263.24C139.342 264.979 138.691 266.125 138.448 266.678V266.678C138.302 266.714 138.123 266.706 137.912 266.656 137.705 266.6 137.499 266.509 137.295 266.385V266.385C137.073 266.25 136.929 266.135 136.862 266.04V266.04C136.24 260.895 135.882 251.529 135.788 237.943V237.943L124.627 257.026C124.418 257.421 124.137 257.67 123.785 257.775 123.427 257.877 123.103 257.84 122.813 257.663ZM177.75 251.215C178.058 251.301 178.152 251.555 178.034 251.978V251.978C177.956 252.254 177.816 252.508 177.613 252.741 177.411 252.968 177.201 253.089 176.983 253.104V253.104L175.448 252.477C173.098 251.494 171.251 250.787 169.908 250.355V250.355L164.09 271.276C163.604 273.012 163.38 274.29 163.42 275.109V275.109C162.925 275.35 162.436 275.404 161.956 275.269V275.269C161.552 275.156 161.272 274.95 161.114 274.65 160.956 274.35 160.934 273.998 161.047 273.595V273.595L167.649 249.723C166.251 249.387 164.293 249.028 161.774 248.647V248.647L160.214 248.407C160.036 248.281 159.921 248.063 159.87 247.751 159.82 247.433 159.834 247.137 159.912 246.861V246.861C160.023 246.464 160.219 246.305 160.501 246.384V246.384ZM186.521 279.986C186.13 279.943 185.827 279.785 185.609 279.514 185.391 279.242 185.305 278.898 185.351 278.481V278.481L187.721 256.616C187.907 254.929 187.918 253.645 187.754 252.764V252.764C188.158 252.44 188.618 252.307 189.134 252.364V252.364C189.55 252.41 189.874 252.569 190.105 252.842 190.335 253.122 190.428 253.467 190.383 253.877V253.877L187.977 275.699C187.779 277.491 187.767 278.788 187.94 279.59V279.59C187.542 279.914 187.069 280.046 186.521 279.986ZM206.473 279.849C206.063 279.89 205.674 279.785 205.308 279.534V279.534C205.488 278.727 205.485 277.39 205.299 275.523V275.523L203.406 256.959C203.206 254.96 202.975 253.552 202.713 252.736V252.736C202.925 252.507 203.288 252.367 203.805 252.316V252.316C204.222 252.274 204.503 252.313 204.649 252.432V252.432C206.909 255.115 209.894 258.761 213.603 263.372 217.313 267.983 220.235 271.676 222.371 274.451V274.451L219.931 254.326C219.821 253.495 219.776 252.771 219.794 252.154 219.813 251.537 219.913 251.102 220.095 250.85V250.85C220.273 250.752 220.504 250.689 220.789 250.661V250.661C220.967 250.643 221.111 250.642 221.22 250.658V250.658C221.482 251.206 221.65 251.858 221.726 252.613V252.613L223.872 273.71C224.074 275.735 224.244 277.042 224.383 277.63V277.63C224.288 277.746 224.141 277.848 223.942 277.935 223.743 278.015 223.524 278.067 223.286 278.09V278.09C223.028 278.116 222.843 278.111 222.733 278.075V278.075C219.138 274.343 213.211 267.082 204.954 256.293V256.293L207.537 278.248C207.607 278.689 207.534 279.058 207.316 279.354 207.092 279.65 206.811 279.815 206.473 279.849ZM250.819 269.454C247.637 270.706 244.779 270.547 242.245 268.978 239.706 267.411 237.6 264.504 235.929 260.257V260.257C234.268 256.035 233.84 252.475 234.644 249.577 235.457 246.684 237.418 244.626 240.526 243.403V243.403C241.714 242.935 242.893 242.65 244.061 242.548 245.225 242.455 246.22 242.549 247.046 242.832 247.87 243.108 248.386 243.513 248.596 244.045V244.045C248.759 244.46 248.73 244.85 248.51 245.216 248.289 245.581 247.899 245.835 247.34 245.976V245.976C246.736 245.006 245.869 244.4 244.737 244.159 243.599 243.92 242.377 244.057 241.071 244.571V244.571C238.62 245.536 237.16 247.258 236.691 249.737 236.225 252.223 236.76 255.419 238.297 259.325V259.325C239.837 263.238 241.62 265.935 243.648 267.418 245.678 268.907 247.931 269.164 250.407 268.19V268.19C252.661 267.303 253.906 265.963 254.144 264.168 254.377 262.381 254.116 260.529 253.361 258.609V258.609C252.141 255.508 250.515 254.228 248.483 254.77V254.77C248.409 254.435 248.478 254.129 248.691 253.852 248.901 253.569 249.214 253.346 249.628 253.183V253.183C250.65 252.781 251.675 252.896 252.703 253.528 253.739 254.164 254.648 255.476 255.43 257.463V257.463C256.003 258.918 256.302 260.405 256.328 261.925 256.348 263.447 255.931 264.887 255.079 266.245 254.226 267.603 252.806 268.672 250.819 269.454ZM272.043 222.806C274.811 220.224 277.283 218.801 279.457 218.538 281.636 218.27 283.643 219.119 285.476 221.084V221.084C287.486 223.239 288.25 225.511 287.766 227.9 287.288 230.293 285.579 232.86 282.641 235.601V235.601L281.809 236.377 286.56 241.47C286.914 241.85 287.388 242.309 287.981 242.847 288.574 243.386 289.057 243.762 289.431 243.978V243.978C289.418 244.49 289.219 244.926 288.835 245.284V245.284C288.528 245.57 288.201 245.707 287.853 245.695 287.505 245.683 287.179 245.533 286.874 245.244V245.244L271.872 229.161C271.536 228.801 271.062 228.342 270.451 227.784 269.844 227.231 269.352 226.845 268.973 226.624V226.624C269.283 225.699 270.306 224.426 272.043 222.806ZM281.986 234.547C284.292 232.396 285.579 230.377 285.847 228.489 286.12 226.597 285.41 224.744 283.717 222.929V222.929C282.115 221.212 280.441 220.422 278.695 220.559 276.944 220.691 274.962 221.789 272.748 223.854V223.854C271.989 224.562 271.549 225.027 271.429 225.248V225.248L280.979 235.487ZM316.746 206.282C317.421 206.433 318.006 206.48 318.499 206.421V206.421C318.649 206.918 318.579 207.397 318.288 207.858V207.858C318.078 208.19 317.831 208.427 317.544 208.568 317.252 208.707 316.953 208.726 316.646 208.627V208.627L308.245 206.474 302.459 215.637 307.3 221.373C307.569 221.731 307.836 221.994 308.1 222.161V222.161C308.387 222.342 308.634 222.419 308.84 222.392V222.392C308.76 222.806 308.593 223.212 308.341 223.611V223.611C307.869 224.36 307.315 224.533 306.679 224.132V224.132C306.522 224.032 306.336 223.86 306.121 223.614 305.906 223.368 305.737 223.194 305.612 223.092V223.092L289.119 202.541C289.226 201.837 289.431 201.243 289.737 200.759V200.759C290.17 200.073 290.717 199.817 291.379 199.99V199.99ZM301.419 214.426L306.683 206.089 290.959 202.039ZM300.895 182.019L323.946 190.316C324.876 187.681 325.857 184.332 326.888 180.269V180.269C327.018 180.146 327.198 180.088 327.429 180.094 327.669 180.096 327.911 180.142 328.155 180.23V180.23C328.768 180.453 329.007 180.749 328.873 181.118V181.118L325.009 191.743C324.875 192.112 324.65 192.37 324.335 192.518 324.019 192.665 323.665 192.667 323.271 192.524V192.524L302.953 185.178C301.359 184.598 300.114 184.284 299.219 184.234V184.234C299 183.766 298.979 183.287 299.157 182.8V182.8C299.3 182.406 299.527 182.141 299.838 182.007 300.155 181.874 300.507 181.879 300.895 182.019ZM61.424 143.114C61.424 137.261 66.168 132.516 72.021 132.516 77.874 132.516 82.619 137.261 82.619 143.114 82.619 148.967 77.874 153.711 72.021 153.711 66.168 153.711 61.424 148.967 61.424 143.114ZM312.901 143.114C312.901 137.261 317.646 132.516 323.499 132.516 329.352 132.516 334.096 137.261 334.096 143.114 334.096 148.967 329.352 153.711 323.499 153.711 317.646 153.711 312.901 148.967 312.901 143.114Z" fill="#aaaaaa" data-fill-palette-color="primary"></path></svg></g></svg></g></svg></g><g></g></svg></g><defs></defs></svg><rect width="395.52" height="280" fill="none" stroke="none" visibility="hidden"></rect></g></svg></g></svg>